<svg id="Capa_1" data-name="Capa 1" xmlns="http://www.w3.org/2000/svg" viewBox="0 0 1920 1080"><defs><style>.cls-1{fill:#3f959f;}.cls-2{fill:#0f747c;opacity:0.22;}.cls-3{fill:none;stroke:#245366;stroke-miterlimit:10;stroke-width:0.5px;}.cls-4{fill:#fff;}</style></defs><title>Background</title><rect class="cls-1" y="2.7" width="1920" height="1079.09"/><path class="cls-2" d="M936.77,611.13c9.24-24.76-117.63-108.76-140.13-88.61-11.14,10,2.87,45.9,21.17,66.83C856.85,634,930.56,627.76,936.77,611.13Z"/><path class="cls-2" d="M1235.09,50.05c-12.7,9.28,22.84,92.59,40.62,90,8.81-1.31,13.61-23.76,11.37-40.16C1282.3,64.86,1243.62,43.81,1235.09,50.05Z"/><path class="cls-2" d="M744,219.93c20.83-49.9,62.68-75.35,97.29-95.74,88.76-52.33,278.29-111.75,379.89-4.64,94.87,100,37.77,265.88,34,276.43-35.25,97.83-132.69,210.7-251.72,203.84-90.87-5.23-149.91-77.7-184-119.58C799.72,456.09,697.69,330.85,744,219.93Z"/><path class="cls-2" d="M1186.47,378.21c-24,38.94-18.63,102.22,20.88,122.12,36.91,18.59,89.89-7.61,107.53-48.9,18.7-43.78-2.89-103.23-44.32-114.67C1237.5,327.63,1202.55,352.06,1186.47,378.21Z"/><path class="cls-3" d="M880.24,1066a1149.1,1149.1,0,0,1,284.65-195.16c318.85-153.73,625.05-117.31,755.11-93.68"/><path class="cls-3" d="M3.83,442.85c37.08,10.25,251.09,65.4,460.6-74.49C650.7,244,707.57,49.51,720,2.7"/><path class="cls-3" d="M1614.69,2.7c-6.86,27-43.67,182.77,53.28,334.43,86.19,134.83,219.86,175.31,252,184.12"/><path class="cls-2" d="M1191.48,71.73c6,7.72,19.08,11.42,26,5,6.5-6,5.24-18.58-1.71-25.22-7.36-7-20.89-7.19-26.3.25C1185.19,57.7,1187.45,66.54,1191.48,71.73Z"/><path class="cls-4" d="M0,575.54v507.25H1920V595.93C1596.47,692.07,559.75,789.85,0,575.54Z"/></svg>