<svg id="Capa_1" data-name="Capa 1" xmlns="http://www.w3.org/2000/svg" viewBox="0 0 1920 1080"><defs><style>.cls-1{fill:#3e56a2;}.cls-2{fill:#263268;opacity:0.4;}.cls-3{fill:none;stroke:#40b1e6;stroke-miterlimit:10;stroke-width:0.5px;}.cls-4{fill:#fff;}</style></defs><title>Background</title><rect class="cls-1" x="4.68" y="2.7" width="1916.17" height="1079.09"/><path class="cls-2" d="M895.71,648.79c9.53-25.55-121.38-112.23-144.59-91.44-11.5,10.3,3,47.36,21.84,69C813.24,672.39,889.3,666,895.71,648.79Z"/><path class="cls-2" d="M1203.52,69.84c-13.1,9.58,23.57,95.54,41.92,92.81,9.09-1.35,14-24.51,11.73-41.43C1252.24,85.12,1212.33,63.41,1203.52,69.84Z"/><path class="cls-2" d="M696.78,245.13c21.5-51.49,64.69-77.74,100.39-98.79,91.59-54,287.15-115.31,392-4.78,97.89,103.21,39,274.34,35,285.23C1187.84,527.73,1087.3,644.2,964.48,637.12c-93.76-5.4-154.68-80.18-189.88-123.39C754.29,488.81,649,359.58,696.78,245.13Z"/><path class="cls-2" d="M1153.36,408.45c-24.71,40.18-19.23,105.48,21.55,126,38.08,19.18,92.74-7.86,110.94-50.46,19.3-45.18-3-106.52-45.72-118.32C1206,356.26,1169.94,381.47,1153.36,408.45Z"/><path class="cls-3" d="M894.31,1066c67.22-63.47,159.85-136,281-195.16,314.8-153.73,617.11-117.31,745.51-93.68"/><path class="cls-3" d="M29.05,442.85C65.66,453.1,277,508.25,483.8,368.36,667.7,244,723.84,49.51,736.09,2.7"/><path class="cls-3" d="M1619.42,2.7c-6.77,27-43.11,182.77,52.61,334.43,85.09,134.83,217.06,175.31,248.82,184.12"/><path class="cls-2" d="M1158.53,92.21c6.19,8,19.68,11.79,26.86,5.17,6.71-6.19,5.41-19.18-1.75-26-7.6-7.27-21.57-7.42-27.15.26C1152,77.73,1154.37,86.85,1158.53,92.21Z"/><path class="cls-4" d="M4.68,575.54v507.25H1920V595.93C1597.26,692.07,563.06,789.85,4.68,575.54Z"/></svg>