<svg id="Capa_1" data-name="Capa 1" xmlns="http://www.w3.org/2000/svg" viewBox="0 0 1920 1080"><defs><style>.cls-1{fill:#a0d1b2;}.cls-2{fill:#379799;opacity:0.4;}.cls-3{fill:none;stroke:#0f8054;stroke-miterlimit:10;stroke-width:0.5px;}.cls-4{fill:#fff;}</style></defs><title>Background</title><rect class="cls-1" x="1.91" y="2.7" width="1918.09" height="1079.09"/><path class="cls-2" d="M903.93,601.16c9-24-114.14-105.54-136-86-10.81,9.68,2.78,44.54,20.54,64.85C826.39,623.35,897.91,617.29,903.93,601.16Z"/><path class="cls-2" d="M1193.39,56.74c-12.33,9,22.16,89.84,39.41,87.28,8.55-1.28,13.21-23.05,11-39C1239.2,71.11,1201.67,50.69,1193.39,56.74Z"/><path class="cls-2" d="M716.87,221.58c20.22-48.43,60.83-73.11,94.4-92.9,86.13-50.77,270-108.44,368.61-4.5,92.06,97,36.65,258,33,268.22-34.21,94.92-128.75,204.44-244.24,197.78-88.18-5.08-145.46-75.39-178.57-116C771,450.72,672,329.2,716.87,221.58Z"/><path class="cls-2" d="M1146.21,375.15c-23.23,37.79-18.07,99.19,20.27,118.5,35.81,18,87.21-7.39,104.33-47.45,18.14-42.49-2.81-100.17-43-111.26C1195.73,326.08,1161.81,349.78,1146.21,375.15Z"/><path class="cls-2" d="M1151.08,77.77c5.82,7.5,18.51,11.09,25.26,4.86,6.31-5.81,5.08-18-1.65-24.47-7.15-6.83-20.28-7-25.53.24C1145,64.16,1147.17,72.74,1151.08,77.77Z"/><path class="cls-3" d="M878.16,1065.66A1151.64,1151.64,0,0,1,1163.38,870.5c319.49-153.73,626.3-117.32,756.62-93.68"/><path class="cls-3" d="M0,442.49c37.16,10.26,251.59,65.4,461.52-74.48C648.16,243.64,705.14,49.16,717.57,2.34"/><path class="cls-3" d="M1614.08,2.34c-6.87,27-43.75,182.77,53.38,334.43,86.37,134.84,220.3,175.31,252.54,184.13"/><path class="cls-4" d="M945.52,416.73C556.44,421,241,508.76,1.91,570.75v511H1920V569.54C1577.22,459.3,1267.09,413.18,945.52,416.73Z"/></svg>