<?xml version="1.0" encoding="utf-8"?>
<!-- Generator: Adobe Illustrator 23.0.5, SVG Export Plug-In . SVG Version: 6.00 Build 0)  -->
<svg version="1.1" id="Capa_1" xmlns="http://www.w3.org/2000/svg" xmlns:xlink="http://www.w3.org/1999/xlink" x="0px" y="0px"
	 viewBox="0 0 1920 1080" style="enable-background:new 0 0 1920 1080;" xml:space="preserve">
<style type="text/css">
	.st0{fill:none;stroke:#245366;stroke-width:0.5;stroke-miterlimit:10;}
	.st1{opacity:0.22;fill:#0F747C;enable-background:new    ;}
</style>
<title>Background</title>
<path class="st0" d="M880.2,1066c84.5-79,180.5-144.8,284.7-195.2c318.8-153.7,625-117.3,755.1-93.7"/>
<path class="st0" d="M3.8,442.9c37.1,10.3,251.1,65.4,460.6-74.5C650.7,244,707.6,49.5,720,2.7"/>
<path class="st0" d="M1614.7,2.7c-6.9,27-43.7,182.8,53.3,334.4c86.2,134.8,219.9,175.3,252,184.1"/>
<path class="st1" d="M913,607c7.3-19.7-93.4-86.4-111.3-70.4c-8.8,7.9,2.3,36.5,16.8,53.1C849.5,625.2,908,620.2,913,607z"/>
<path class="st1" d="M1654.8,935.6c1.9-12.4-64.8-39.2-73.4-27.7c-4.2,5.7,5.7,21,16.2,28.9C1620,953.7,1653.6,943.8,1654.8,935.6z"
	/>
<path class="st1" d="M101.2,847.2c4.6-11.1,13.9-16.7,21.6-21.2c19.7-11.6,61.8-24.8,84.3-1c21,22.2,8.4,59,7.5,61.4
	c-7.8,21.7-29.5,46.8-55.9,45.3c-20.2-1.2-33.3-17.2-40.8-26.6C113.6,899.6,90.9,871.8,101.2,847.2z"/>
<path class="st1" d="M455.8,623.8c-19.1,30.9-14.8,81.2,16.6,97c29.3,14.8,71.4-6,85.4-38.8c14.9-34.8-2.3-82-35.2-91.1
	C496.3,583.7,468.5,603.1,455.8,623.8z"/>
<path class="st1" d="M1734.3,871.7c-7.7-0.9-17.2,4.3-17.4,11.7c-0.3,7.1,7.5,13.4,15.1,13.2c8.1-0.1,15.8-7.7,14.6-14.9
	C1745.7,876.1,1739.5,872.4,1734.3,871.7z"/>
<path class="st1" d="M733.9,54.2c-19.1,30.9-14.8,81.2,16.6,97c29.3,14.8,71.4-6,85.4-38.8c14.9-34.8-2.3-82-35.2-91.1
	C774.4,14.1,746.6,33.4,733.9,54.2z"/>
<path class="st1" d="M699,209.4c-10.1,7.4,18.1,73.5,32.3,71.5c7-1,10.8-18.9,9-31.9C736.5,221.2,705.7,204.5,699,209.4z"/>
<path class="st1" d="M664.3,226.7c4.8,6.1,15.2,9.1,20.6,4c5.2-4.8,4.2-14.8-1.4-20c-5.8-5.6-16.6-5.7-20.9,0.2
	C659.3,215.5,661.1,222.5,664.3,226.7z"/>
<path class="st1" d="M476.3,787.1c7.3-19.7-93.4-86.4-111.3-70.4c-8.8,7.9,2.3,36.5,16.8,53.1C412.8,805.3,471.3,800.3,476.3,787.1z
	"/>
<path class="st1" d="M1223.9,256.5c4.6-11.1,13.9-16.7,21.6-21.2c19.7-11.6,61.8-24.8,84.3-1c21,22.2,8.4,59,7.5,61.4
	c-7.8,21.7-29.5,46.8-55.9,45.3c-20.2-1.2-33.3-17.2-40.8-26.6C1236.2,309,1213.6,281.1,1223.9,256.5z"/>
<path class="st1" d="M267.5,335.7c8.8,19.1,127.1-4.9,128.5-28.9c0.6-11.8-27.4-24.2-49.4-25.7C299.5,277.9,261.7,322.8,267.5,335.7
	z"/>
<path class="st1" d="M975.7,633.1c4.6-11.1,13.9-16.7,21.6-21.2c19.7-11.6,61.8-24.8,84.3-1c21,22.2,8.4,59,7.5,61.4
	c-7.8,21.7-29.5,46.8-55.9,45.3c-20.2-1.2-33.3-17.2-40.8-26.6C988.1,685.6,965.4,657.7,975.7,633.1z"/>
<path class="st1" d="M962.1,527.9c-7.7-0.9-17.2,4.3-17.4,11.7c-0.3,7.1,7.5,13.4,15.1,13.2c8.1-0.1,15.8-7.7,14.6-14.9
	C973.5,532.3,967.3,528.6,962.1,527.9z"/>
<path class="st1" d="M690.8,784.6c-7.7-0.9-17.2,4.3-17.4,11.7c-0.3,7.1,7.5,13.4,15.1,13.2c8.1-0.1,15.8-7.7,14.6-14.9
	C702.3,789,696,785.3,690.8,784.6z"/>
<path class="st1" d="M565.6,508.8c-7.7-0.9-17.2,4.3-17.4,11.7c-0.3,7.1,7.5,13.4,15.1,13.2c8.1-0.1,15.8-7.7,14.6-14.9
	C577.1,513.2,570.9,509.5,565.6,508.8z"/>
<path class="st1" d="M284.3,392.7c-7.7-0.9-17.2,4.3-17.4,11.7c-0.3,7.1,7.5,13.4,15.1,13.2c8.1-0.1,15.8-7.7,14.6-14.9
	C295.8,397.1,289.5,393.4,284.3,392.7z"/>
<path class="st1" d="M1797.3,164.9c-7.7-0.9-17.2,4.3-17.4,11.7c-0.3,7.1,7.5,13.4,15.1,13.2c8.1-0.1,15.8-7.7,14.6-14.9
	C1808.7,169.3,1802.5,165.6,1797.3,164.9z"/>
<path class="st1" d="M93,188.4c-19.1,30.9-14.8,81.2,16.6,97c29.3,14.8,71.4-6,85.4-38.8c14.9-34.8-2.3-82-35.2-91.1
	C133.5,148.3,105.7,167.7,93,188.4z"/>
<path class="st1" d="M202.8,73.3c-7.7-0.9-17.2,4.3-17.4,11.7c-0.3,7.1,7.5,13.4,15.1,13.2c8.1-0.1,15.8-7.7,14.6-14.9
	C214.3,77.7,208.1,74,202.8,73.3z"/>
<path class="st1" d="M599.3,92.4c-7.7-0.9-17.2,4.3-17.4,11.7c-0.3,7.1,7.5,13.4,15.1,13.2c8.1-0.1,15.8-7.7,14.6-14.9
	C610.7,96.8,604.5,93.1,599.3,92.4z"/>
<path class="st1" d="M347.9,140.3c4.6-11.1,13.9-16.7,21.6-21.2c19.7-11.6,61.8-24.8,84.3-1c21,22.2,8.4,59,7.5,61.4
	c-7.8,21.7-29.5,46.8-55.9,45.3c-20.2-1.2-33.3-17.2-40.8-26.6C360.3,192.8,337.7,165,347.9,140.3z"/>
<path class="st1" d="M1730.9,324.2c8.8,19.1,127.1-4.9,128.5-28.9c0.6-11.8-27.4-24.2-49.4-25.7
	C1762.9,266.4,1725.1,311.3,1730.9,324.2z"/>
<path class="st1" d="M1358.1,509.7c4.6-11.1,13.9-16.7,21.6-21.2c19.7-11.6,61.8-24.8,84.3-1c21,22.2,8.4,59,7.5,61.4
	c-7.8,21.7-29.5,46.8-55.9,45.3c-20.2-1.2-33.3-17.2-40.8-26.6C1370.5,562.1,1347.9,534.3,1358.1,509.7z"/>
<path class="st1" d="M762.2,961.1c4.6-11.1,13.9-16.7,21.6-21.2c19.7-11.6,61.8-24.8,84.3-1c21,22.2,8.4,59,7.5,61.4
	c-7.8,21.7-29.5,46.8-55.9,45.3c-20.2-1.2-33.3-17.2-40.8-26.6C774.5,1013.5,751.9,985.7,762.2,961.1z"/>
<path class="st1" d="M453,1035.6c7.3-19.7-93.4-86.4-111.3-70.4c-8.8,7.9,2.3,36.5,16.8,53.1C389.5,1053.8,448,1048.8,453,1035.6z"
	/>
</svg>
