<?xml version="1.0" encoding="utf-8"?>
<!-- Generator: Adobe Illustrator 23.0.5, SVG Export Plug-In . SVG Version: 6.00 Build 0)  -->
<svg version="1.1" id="Capa_1" xmlns="http://www.w3.org/2000/svg" xmlns:xlink="http://www.w3.org/1999/xlink" x="0px" y="0px"
	 viewBox="0 0 1920 1080" style="enable-background:new 0 0 1920 1080;" xml:space="preserve">
<style type="text/css">
	.st0{fill:#3E56A2;}
	.st1{opacity:0.4;fill:#263268;enable-background:new    ;}
	.st2{fill:none;stroke:#40B1E6;stroke-width:0.5;stroke-miterlimit:10;}
</style>
<title>Background</title>
<rect x="4.7" y="2.7" class="st0" width="1916.2" height="1079.1"/>
<path class="st1" d="M895.7,648.8c9.5-25.5-121.4-112.2-144.6-91.4c-11.5,10.3,3,47.4,21.8,69C813.2,672.4,889.3,666,895.7,648.8z"
	/>
<path class="st1" d="M1203.5,69.8c-13.1,9.6,23.6,95.5,41.9,92.8c9.1-1.4,14-24.5,11.7-41.4C1252.2,85.1,1212.3,63.4,1203.5,69.8z"
	/>
<path class="st1" d="M696.8,245.1c21.5-51.5,64.7-77.7,100.4-98.8c91.6-54,287.2-115.3,392-4.8c97.9,103.2,39,274.3,35,285.2
	c-36.3,100.9-136.9,217.4-259.7,210.3c-93.8-5.4-154.7-80.2-189.9-123.4C754.3,488.8,649,359.6,696.8,245.1z"/>
<path class="st1" d="M1153.4,408.5c-24.7,40.2-19.2,105.5,21.6,126c38.1,19.2,92.7-7.9,110.9-50.5c19.3-45.2-3-106.5-45.7-118.3
	C1206,356.3,1169.9,381.5,1153.4,408.5z"/>
<path class="st2" d="M894.3,1066c67.2-63.5,159.9-136,281-195.2c314.8-153.7,617.1-117.3,745.5-93.7"/>
<path class="st2" d="M29,442.9c36.6,10.3,247.9,65.4,454.8-74.5C667.7,244,723.8,49.5,736.1,2.7"/>
<path class="st2" d="M1619.4,2.7c-6.8,27-43.1,182.8,52.6,334.4c85.1,134.8,217.1,175.3,248.8,184.1"/>
<path class="st1" d="M1158.5,92.2c6.2,8,19.7,11.8,26.9,5.2c6.7-6.2,5.4-19.2-1.8-26c-7.6-7.3-21.6-7.4-27.2,0.3
	C1152,77.7,1154.4,86.8,1158.5,92.2z"/>
</svg>
