<?xml version="1.0" encoding="utf-8"?>
<!-- Generator: Adobe Illustrator 23.0.5, SVG Export Plug-In . SVG Version: 6.00 Build 0)  -->
<svg version="1.1" id="Capa_1" xmlns="http://www.w3.org/2000/svg" xmlns:xlink="http://www.w3.org/1999/xlink" x="0px" y="0px"
	 viewBox="0 0 640 480" style="enable-background:new 0 0 640 480;" xml:space="preserve">
<style type="text/css">
	.st0{opacity:0.4;fill:#263268;enable-background:new    ;}
</style>
<path class="st0" d="M257.7,453.4c7.3-19.4-92.4-85.4-110-69.6c-8.8,7.8,2.3,36,16.6,52.5C195,471.3,252.9,466.5,257.7,453.4z"/>
<path class="st0" d="M492,12.7c-10,7.3,17.9,72.7,31.9,70.6c6.9-1,10.7-18.7,8.9-31.5C529.1,24.3,498.7,7.8,492,12.7z"/>
<path class="st0" d="M106.3,146.1c16.4-39.2,49.2-59.2,76.4-75.2c69.7-41.1,218.6-87.8,298.4-3.6c74.5,78.6,29.7,208.8,26.6,217.1
	c-27.7,76.8-104.2,165.5-197.7,160.1c-71.4-4.1-117.7-61-144.5-93.9C150.1,331.6,70,233.2,106.3,146.1z"/>
<path class="st0" d="M453.8,270.4c-18.8,30.6-14.6,80.3,16.4,95.9c29,14.6,70.6-6,84.4-38.4c14.7-34.4-2.3-81.1-34.8-90.1
	C493.9,230.7,466.4,249.9,453.8,270.4z"/>
<path class="st0" d="M457.8,29.7c4.7,6.1,15,9,20.4,3.9c5.1-4.7,4.1-14.6-1.3-19.8c-5.8-5.5-16.4-5.6-20.7,0.2
	C452.8,18.7,454.6,25.7,457.8,29.7z"/>
</svg>
