<?xml version="1.0" encoding="utf-8"?>
<!-- Generator: Adobe Illustrator 23.0.5, SVG Export Plug-In . SVG Version: 6.00 Build 0)  -->
<svg version="1.1" id="Capa_1" xmlns="http://www.w3.org/2000/svg" xmlns:xlink="http://www.w3.org/1999/xlink" x="0px" y="0px"
	 viewBox="0 0 640 480" style="enable-background:new 0 0 640 480;" xml:space="preserve">
<style type="text/css">
	.st0{opacity:0.22;fill:#0F747C;enable-background:new    ;}
</style>
<path class="st0" d="M272.6,454.6c7.3-19.7-93.4-86.4-111.3-70.4c-8.8,7.9,2.3,36.5,16.8,53.1C209.1,472.8,267.6,467.8,272.6,454.6z
	"/>
<path class="st0" d="M509.5,9c-10.1,7.4,18.1,73.5,32.3,71.5c7-1,10.8-18.9,9-31.9C547,20.8,516.2,4.1,509.5,9z"/>
<path class="st0" d="M119.5,143.9c16.5-39.6,49.8-59.8,77.3-76c70.5-41.6,221-88.7,301.7-3.7c75.3,79.4,30,211.1,27,219.5
	c-28,77.7-105.4,167.3-199.9,161.9c-72.2-4.2-119-61.7-146.1-95C163.7,331.5,82.7,232,119.5,143.9z"/>
<path class="st0" d="M470.9,269.6c-19.1,30.9-14.8,81.2,16.6,97c29.3,14.8,71.4-6,85.4-38.8c14.9-34.8-2.3-82-35.2-91.1
	C511.4,229.5,483.6,248.9,470.9,269.6z"/>
<path class="st0" d="M474.8,26.3c4.8,6.1,15.2,9.1,20.6,4c5.2-4.8,4.2-14.8-1.4-20c-5.8-5.6-16.6-5.7-20.9,0.2
	C469.8,15.1,471.6,22.1,474.8,26.3z"/>
</svg>
