<?xml version="1.0" encoding="utf-8"?>
<!-- Generator: Adobe Illustrator 23.0.5, SVG Export Plug-In . SVG Version: 6.00 Build 0)  -->
<svg version="1.1" id="Capa_1" xmlns="http://www.w3.org/2000/svg" xmlns:xlink="http://www.w3.org/1999/xlink" x="0px" y="0px"
	 viewBox="0 0 640 480" style="enable-background:new 0 0 640 480;" xml:space="preserve">
<style type="text/css">
	.st0{opacity:0.4;fill:#379799;enable-background:new    ;}
</style>
<path class="st0" d="M457.8,29.7c4.7,6.1,15,9,20.4,3.9c5.1-4.7,4.1-14.6-1.3-19.8c-5.8-5.5-16.4-5.6-20.7,0.2
	C452.8,18.7,454.6,25.7,457.8,29.7z"/>
<path class="st0" d="M257.2,467.8c7.6-20.2-95.9-88.7-114.2-72.2c-9.1,8.1,2.3,37.4,17.3,54.5C192,486.4,252.1,481.3,257.2,467.8z"
	/>
<path class="st0" d="M500.3,10.5c-10.4,7.6,18.6,75.5,33.1,73.3c7.2-1.1,11.1-19.4,9.2-32.8C538.8,22.6,507.3,5.4,500.3,10.5z"/>
<path class="st0" d="M100,148.9c17-40.7,51.1-61.4,79.3-78c72.3-42.6,226.8-91.1,309.6-3.8c77.3,81.5,30.8,216.7,27.7,225.3
	c-28.7,79.7-108.1,171.7-205.2,166.1c-74.1-4.3-122.2-63.3-150-97.4C145.5,341.4,62.3,239.3,100,148.9z"/>
<path class="st0" d="M460.7,277.9c-19.5,31.7-15.2,83.3,17,99.5c30.1,15.1,73.3-6.2,87.6-39.9c15.2-35.7-2.4-84.1-36.1-93.5
	C502.3,236.7,473.8,256.6,460.7,277.9z"/>
</svg>
